# xmcd
#
# Track frame offsets: 
#        150
#        14238
#        31560
#        44010
#        56475
#        67740
#        79577
#        94230
#        105437
#        120925
#        134985
#        146827
#        160800
#        173063
#        185454
#        200299
#        209897
#        220372
#        233032
#        246232
#        259995
#        270858
#        283425
#
# Disc length: 3921 seconds
#
# Revision: 3
# Processed by: cddbd v1.5.2PL0 Copyright (c) Steve Scherf et al.
# Submitted via: ExactAudioCopyFreeDBPlugin 1.0
#
DISCID=5b0f4f17
DTITLE=Various Artist - 100% (4) Easy Loungin'
DYEAR=2004
DGENRE=Easy Listening
TTITLE0=Bobby Darin - Mack The Knife
TTITLE1=Scott Walker - Joanna
TTITLE2=Al Martino - Spanish Eyes
TTITLE3=Petula Clark - My Love
TTITLE4=Dinah Washington - What A Difference A Day Makes
TTITLE5=Sarah Vaughan - Whatever Lola Wants
TTITLE6=Perry Como - It's Impossible
TTITLE7=Brook Benton - Fools Rush In
TTITLE8=Billie Holiday - I Wished On The Moon
TTITLE9=Dean Martin - That's Amore
TTITLE10=Bobby Darin and his Orchestra - Theme From Come September
TTITLE11=Sammy Davis Jr. and Frank Sinatra - Me And My Shadow
TTITLE12=Mel Tormé - Comin' Home Baby
TTITLE13=Dionne Warwick - I'll Never Fall In Love Again
TTITLE14=Frank Sinatra - Come Fly With Me
TTITLE15=Andy Williams - House Of Bamboo
TTITLE16=Tony Bennett - Anything Goes
TTITLE17=Vic Damone - Almost Like Being In Love
TTITLE18=The Association - Windy
TTITLE19=Tony Renis - Quando, Quando
TTITLE20=Nancy Sinatra - Sugar Town
TTITLE21=Jackie Trent - Where Are You Now (My Love)
TTITLE22=Perez Prado feat. Rosemary Clooney - Sway
EXTD=YEAR: 2004
EXTT0=
EXTT1=
EXTT2=
EXTT3=
EXTT4=
EXTT5=
EXTT6=
EXTT7=
EXTT8=
EXTT9=
EXTT10=
EXTT11=
EXTT12=
EXTT13=
EXTT14=
EXTT15=
EXTT16=
EXTT17=
EXTT18=
EXTT19=
EXTT20=
EXTT21=
EXTT22=
PLAYORDER=
